<svg width="1448" height="1032" viewBox="0 0 1448 1032" fill="none" xmlns="http://www.w3.org/2000/svg">
<g id="logo-figma" filter="url(#filter0_d)">
<rect x="4" width="1440" height="1024" fill="white"/>
<g id="Group 26">
<circle id="Ellipse 2" cx="344" cy="453" r="252.9" fill="white" stroke="black" stroke-width="0.2"/>
</g>
<g id="ellirect-violet">
<path id="Ellipse 2_2" d="M284.784 449.565C284.784 479.1 284.784 476.304 284.784 503.043C256.726 503.043 233.98 479.1 233.98 449.565C233.98 420.03 256.726 396.087 284.784 396.087C284.784 426.514 284.784 420.03 284.784 449.565Z" fill="#737DD9"/>
<rect id="Rectangle 3" x="285.284" y="396.587" width="61.0941" height="105.956" fill="#737DD9" stroke="#737DD9"/>
</g>
<g id="ellirect-rouge">
<rect id="Rectangle 2" x="290.429" y="289.13" width="56.4492" height="106.956" fill="#F34D4D"/>
<path id="Ellipse 6" d="M289.929 342.608V342.781V342.953V343.124V343.295V343.465V343.634V343.802V343.969V344.136V344.302V344.468V344.633V344.797V344.96V345.123V345.285V345.446V345.606V345.766V345.925V346.084V346.242V346.399V346.555V346.711V346.866V347.02V347.174V347.327V347.48V347.631V347.783V347.933V348.083V348.232V348.381V348.528V348.676V348.822V348.968V349.114V349.258V349.402V349.546V349.689V349.831V349.973V350.114V350.254V350.394V350.533V350.672V350.81V350.947V351.084V351.22V351.356V351.491V351.626V351.759V351.893V352.026V352.158V352.289V352.421V352.551V352.681V352.81V352.939V353.068V353.195V353.323V353.449V353.575V353.701V353.826V353.951V354.075V354.198V354.321V354.443V354.565V354.687V354.808V354.928V355.048V355.167V355.286V355.405V355.523V355.64V355.757V355.873V355.989V356.105V356.22V356.334V356.448V356.562V356.675V356.788V356.9V357.012V357.123V357.234V357.344V357.454V357.564V357.673V357.781V357.889V357.997V358.104V358.211V358.318V358.424V358.529V358.635V358.739V358.844V358.948V359.051V359.155V359.257V359.36V359.462V359.563V359.664V359.765V359.866V359.966V360.065V360.165V360.263V360.362V360.46V360.558V360.655V360.753V360.849V360.946V361.042V361.137V361.233V361.328V361.422V361.517V361.611V361.704V361.798V361.891V361.983V362.076V362.168V362.26V362.351V362.442V362.533V362.623V362.714V362.804V362.893V362.982V363.072V363.16V363.249V363.337V363.425V363.512V363.6V363.687V363.774V363.86V363.947V364.033V364.118V364.204V364.289V364.374V364.459V364.544V364.628V364.712V364.796V364.879V364.963V365.046V365.129V365.211V365.294V365.376V365.458V365.54V365.622V365.703V365.784V365.865V365.946V366.027V366.107V366.188V366.268V366.348V366.427V366.507V366.586V366.666V366.745V366.824V366.902V366.981V367.059V367.137V367.216V367.294V367.371V367.449V367.526V367.604V367.681V367.758V367.835V367.912V367.989V368.065V368.142V368.218V368.295V368.371V368.447V368.523V368.599V368.674V368.75V368.826V368.901V368.977V369.052V369.127V369.202V369.277V369.352V369.427V369.502V369.577V369.652V369.726V369.801V369.875V369.95V370.024V370.099V370.173V370.248V370.322V370.396V370.47V370.544V370.619V370.693V370.767V370.841V370.915V370.989V371.063V371.137V371.211V371.285V371.36V371.434V371.508V371.582V371.656V371.73V371.804V371.878V371.952V372.027V372.101V372.175V372.249V372.324V372.398V372.472V372.547V372.621V372.696V372.771V372.845V372.92V372.995V373.07V373.144V373.219V373.294V373.37V373.445V373.52V373.596V373.671V373.747V373.822V373.898V373.974V374.05V374.126V374.202V374.278V374.355V374.431V374.508V374.584V374.661V374.738V374.815V374.893V374.97V375.047V375.125V375.203V375.281V375.359V375.437V375.515V375.594V375.673V375.752V375.831V375.91V375.989V376.069V376.148V376.228V376.308V376.389V376.469V376.55V376.63V376.711V376.793V376.874V376.956V377.037V377.12V377.202V377.284V377.367V377.45V377.533V377.616V377.7V377.784V377.868V377.952V378.036V378.121V378.206V378.291V378.377V378.463V378.549V378.635V378.721V378.808V378.895V378.983V379.07V379.158V379.246V379.335V379.423V379.512V379.602V379.691V379.781V379.871V379.962V380.052V380.143V380.235V380.327V380.419V380.511V380.603V380.696V380.79V380.883V380.977V381.072V381.166V381.261V381.356V381.452V381.548V381.644V381.741V381.838V381.936V382.033V382.131V382.23V382.329V382.428V382.528V382.628V382.728V382.829V382.93V383.031V383.133V383.236V383.338V383.441V383.545V383.649V383.753V383.858V383.963V384.069V384.174V384.281V384.388V384.495V384.603V384.711V384.819V384.928V385.038V385.148V385.258V385.369V385.48V385.592V385.704V385.816V385.929V386.043V386.157V386.271V386.386V386.502V386.618V386.734V386.851V386.968V387.086V387.204V387.323V387.442V387.562V387.683V387.803V387.925V388.047V388.169V388.292V388.415V388.539V388.664V388.789V388.914V389.04V389.167V389.294V389.422V389.55V389.679V389.808V389.938V390.068V390.199V390.331V390.463V390.596V390.729V390.863V390.997V391.132V391.268V391.404V391.541V391.678V391.816V391.955V392.094V392.233V392.374V392.515V392.656V392.798V392.941V393.085V393.229V393.373V393.519V393.664V393.811V393.958V394.106V394.254V394.403V394.553V394.704V394.855V395.006V395.159V395.312V395.465V395.585C259.234 395.33 234.48 371.685 234.48 342.608C234.48 313.532 259.234 289.887 289.929 289.632V289.661V289.837V290.011V290.185V290.358V290.53V290.701V290.871V291.041V291.21V291.378V291.545V291.711V291.877V292.042V292.206V292.369V292.531V292.693V292.854V293.014V293.173V293.332V293.49V293.647V293.803V293.959V294.113V294.267V294.421V294.573V294.725V294.876V295.026V295.176V295.325V295.473V295.621V295.767V295.913V296.059V296.203V296.347V296.49V296.633V296.775V296.916V297.056V297.196V297.335V297.474V297.611V297.749V297.885V298.021V298.156V298.29V298.424V298.557V298.69V298.821V298.953V299.083V299.213V299.343V299.471V299.599V299.727V299.854V299.98V300.105V300.23V300.355V300.479V300.602V300.724V300.846V300.968V301.089V301.209V301.329V301.448V301.566V301.684V301.802V301.918V302.035V302.15V302.266V302.38V302.494V302.608V302.721V302.833V302.945V303.057V303.168V303.278V303.388V303.497V303.606V303.714V303.822V303.929V304.036V304.142V304.248V304.354V304.458V304.563V304.667V304.77V304.873V304.975V305.077V305.179V305.28V305.381V305.481V305.58V305.68V305.778V305.877V305.975V306.072V306.169V306.266V306.362V306.458V306.553V306.648V306.743V306.837V306.931V307.024V307.117V307.21V307.302V307.394V307.485V307.576V307.667V307.757V307.847V307.936V308.025V308.114V308.202V308.291V308.378V308.466V308.553V308.639V308.726V308.812V308.897V308.983V309.068V309.152V309.237V309.321V309.404V309.488V309.571V309.654V309.736V309.818V309.9V309.982V310.063V310.144V310.225V310.306V310.386V310.466V310.546V310.625V310.704V310.783V310.862V310.94V311.018V311.096V311.174V311.251V311.328V311.405V311.482V311.559V311.635V311.711V311.787V311.862V311.938V312.013V312.088V312.163V312.237V312.312V312.386V312.46V312.534V312.608V312.681V312.755V312.828V312.901V312.974V313.046V313.119V313.191V313.263V313.335V313.407V313.479V313.551V313.622V313.694V313.765V313.836V313.907V313.978V314.049V314.119V314.19V314.26V314.331V314.401V314.471V314.541V314.611V314.681V314.751V314.821V314.89V314.96V315.029V315.099V315.168V315.238V315.307V315.376V315.445V315.514V315.584V315.653V315.722V315.791V315.859V315.928V315.997V316.066V316.135V316.204V316.273V316.342V316.41V316.479V316.548V316.617V316.686V316.755V316.823V316.892V316.961V317.03V317.099V317.168V317.237V317.306V317.375V317.444V317.514V317.583V317.652V317.722V317.791V317.861V317.93V318V318.07V318.139V318.209V318.279V318.349V318.419V318.49V318.56V318.63V318.701V318.771V318.842V318.913V318.984V319.055V319.126V319.198V319.269V319.341V319.413V319.484V319.556V319.629V319.701V319.773V319.846V319.919V319.992V320.065V320.138V320.212V320.285V320.359V320.433V320.507V320.582V320.656V320.731V320.806V320.881V320.957V321.032V321.108V321.184V321.26V321.337V321.413V321.49V321.567V321.645V321.722V321.8V321.878V321.957V322.035V322.114V322.193V322.272V322.352V322.432V322.512V322.592V322.673V322.754V322.835V322.917V322.999V323.081V323.163V323.246V323.329V323.412V323.496V323.58V323.664V323.749V323.834V323.919V324.005V324.091V324.177V324.263V324.35V324.438V324.525V324.613V324.702V324.79V324.879V324.969V325.058V325.149V325.239V325.33V325.421V325.513V325.605V325.697V325.79V325.883V325.977V326.071V326.166V326.26V326.356V326.451V326.548V326.644V326.741V326.838V326.936V327.034V327.133V327.232V327.332V327.432V327.532V327.633V327.735V327.837V327.939V328.042V328.145V328.249V328.353V328.458V328.563V328.669V328.775V328.881V328.989V329.096V329.204V329.313V329.422V329.532V329.642V329.753V329.864V329.976V330.088V330.201V330.315V330.429V330.543V330.658V330.774V330.89V331.007V331.124V331.242V331.36V331.479V331.598V331.719V331.839V331.961V332.082V332.205V332.328V332.451V332.576V332.701V332.826V332.952V333.079V333.206V333.334V333.462V333.592V333.721V333.852V333.983V334.114V334.247V334.38V334.513V334.648V334.783V334.918V335.054V335.191V335.329V335.467V335.606V335.746V335.886V336.027V336.169V336.311V336.454V336.598V336.742V336.887V337.033V337.18V337.327V337.475V337.624V337.773V337.923V338.074V338.226V338.378V338.531V338.685V338.84V338.995V339.151V339.308V339.465V339.624V339.783V339.943V340.103V340.265V340.427V340.59V340.754V340.919V341.084V341.25V341.417V341.585V341.753V341.923V342.093V342.264V342.436V342.608Z" fill="#F34D4D" stroke="#F34D4D"/>
</g>
<g id="ellirect-rose">
<g id="Group 1">
<rect id="Rectangle 3_2" x="347.378" y="289.63" width="52.4782" height="105.956" fill="#F47E7E" stroke="#F47E7E"/>
<g id="Ellipse 5">
<path d="M400.356 342.608V396.087C429.892 396.087 453.835 372.144 453.835 342.608C453.835 313.073 429.892 289.13 400.356 289.13V342.608Z" fill="#F47E7E"/>
<path d="M400.356 342.608V396.087C429.892 396.087 453.835 372.144 453.835 342.608C453.835 313.073 429.892 289.13 400.356 289.13V342.608Z" stroke="#F47E7E"/>
</g>
</g>
</g>
<ellipse id="circle-bleu" cx="400" cy="450" rx="53" ry="54" fill="#47CBFD"/>
<g id="ellipic-vert">
<circle id="Ellipse 7" cx="290.429" cy="559.492" r="56.4492" fill="#1CD27B"/>
<path id="Rectangle 4" d="M287.863 503.043H346.878V556.926L287.863 572.321V503.043Z" fill="#1CD27B"/>
</g>
</g>
<defs>
<filter id="filter0_d" x="0" y="0" width="1448" height="1032" filterUnits="userSpaceOnUse" color-interpolation-filters="sRGB">
<feFlood flood-opacity="0" result="BackgroundImageFix"/>
<feColorMatrix in="SourceAlpha" type="matrix" values="0 0 0 0 0 0 0 0 0 0 0 0 0 0 0 0 0 0 127 0"/>
<feOffset dy="4"/>
<feGaussianBlur stdDeviation="2"/>
<feColorMatrix type="matrix" values="0 0 0 0 0 0 0 0 0 0 0 0 0 0 0 0 0 0 0.25 0"/>
<feBlend mode="normal" in2="BackgroundImageFix" result="effect1_dropShadow"/>
<feBlend mode="normal" in="SourceGraphic" in2="effect1_dropShadow" result="shape"/>
</filter>
</defs>
</svg>
